<svg width="40" height="40" viewBox="0 0 40 40" fill="none" xmlns="http://www.w3.org/2000/svg">
<path d="M33.7501 7.5H6.25013C5.58709 7.5 4.95121 7.76339 4.48237 8.23223C4.01352 8.70107 3.75013 9.33696 3.75013 10V34.8125C3.74516 35.2907 3.88005 35.7599 4.13822 36.1624C4.39639 36.5649 4.76658 36.8832 5.20326 37.0781C5.63302 37.2787 6.11097 37.3528 6.5813 37.292C7.05163 37.2311 7.49495 37.0377 7.85951 36.7344L12.8126 32.5625L33.7501 32.5C34.4132 32.5 35.0491 32.2366 35.5179 31.7678C35.9867 31.2989 36.2501 30.663 36.2501 30V10C36.2501 9.33696 35.9867 8.70107 35.5179 8.23223C35.0491 7.76339 34.4132 7.5 33.7501 7.5V7.5ZM25.0001 23.75H15.0001C14.6686 23.75 14.3507 23.6183 14.1162 23.3839C13.8818 23.1495 13.7501 22.8315 13.7501 22.5C13.7501 22.1685 13.8818 21.8505 14.1162 21.6161C14.3507 21.3817 14.6686 21.25 15.0001 21.25H25.0001C25.3317 21.25 25.6496 21.3817 25.884 21.6161C26.1184 21.8505 26.2501 22.1685 26.2501 22.5C26.2501 22.8315 26.1184 23.1495 25.884 23.3839C25.6496 23.6183 25.3317 23.75 25.0001 23.75ZM25.0001 18.75H15.0001C14.6686 18.75 14.3507 18.6183 14.1162 18.3839C13.8818 18.1495 13.7501 17.8315 13.7501 17.5C13.7501 17.1685 13.8818 16.8505 14.1162 16.6161C14.3507 16.3817 14.6686 16.25 15.0001 16.25H25.0001C25.3317 16.25 25.6496 16.3817 25.884 16.6161C26.1184 16.8505 26.2501 17.1685 26.2501 17.5C26.2501 17.8315 26.1184 18.1495 25.884 18.3839C25.6496 18.6183 25.3317 18.75 25.0001 18.75Z" fill="white"/>
</svg>
