<svg width="40" height="40" viewBox="0 0 40 40" fill="none" xmlns="http://www.w3.org/2000/svg">
<path d="M19.9996 0C8.73332 0 0 8.25283 0 19.3996C0 25.2305 2.38945 30.2684 6.28087 33.7493C6.44316 33.8929 6.5745 34.068 6.66691 34.264C6.75932 34.46 6.81085 34.6727 6.81836 34.8893L6.92736 38.4492C6.93541 38.7112 7.0077 38.9671 7.13785 39.1946C7.268 39.4221 7.45205 39.6141 7.6738 39.7538C7.89555 39.8935 8.14822 39.9766 8.4096 39.9957C8.67098 40.0149 8.93306 39.9695 9.17281 39.8637L13.1422 38.1137C13.4786 37.9655 13.8559 37.938 14.2102 38.0357C16.0971 38.5485 18.0443 38.8053 19.9996 38.7992C31.2659 38.7992 39.9992 30.5494 39.9992 19.3996C39.9992 8.24983 31.2659 0 19.9996 0ZM32.0093 14.9262L26.1345 24.2495C25.9135 24.6001 25.6222 24.9011 25.2791 25.1335C24.9359 25.3659 24.5483 25.5247 24.1408 25.5999C23.7332 25.675 23.3145 25.6649 22.911 25.5702C22.5076 25.4755 22.1281 25.2982 21.7966 25.0495L17.1241 21.5446C16.9155 21.3881 16.6615 21.3039 16.4007 21.3047C16.1398 21.3056 15.8864 21.3913 15.6787 21.5491L9.36781 26.3365C8.52582 26.9754 7.42635 25.9675 7.98984 25.073L13.8647 15.7522C14.0857 15.4016 14.377 15.1006 14.7201 14.8682C15.0633 14.6358 15.4508 14.477 15.8584 14.4018C16.266 14.3266 16.6847 14.3367 17.0882 14.4315C17.4916 14.5262 17.8711 14.7035 18.2026 14.9522L22.8755 18.4566C23.0842 18.6131 23.3382 18.6972 23.599 18.6964C23.8598 18.6956 24.1133 18.6099 24.321 18.4521L30.6314 13.6632C31.4739 13.0237 32.5733 14.0317 32.0093 14.9262Z" fill="white"/>
</svg>
