<svg width="32" height="33" viewBox="0 0 32 33" fill="none" xmlns="http://www.w3.org/2000/svg">
<g id="Fill/add-event">
<path id="Union" fill-rule="evenodd" clip-rule="evenodd" d="M10.667 3.14889H7.33179V5.81218H6.66667C5.19391 5.81218 4 7.00608 4 8.47884V25.8122C4 27.2849 5.19391 28.4788 6.66667 28.4788H25.3333C26.8061 28.4788 28 27.2849 28 25.8122V8.47884C28 7.00608 26.8061 5.81218 25.3333 5.81218H24.6675V3.14889H21.3323V5.81218H10.667V3.14889ZM6.3374 12.8425C6.3374 12.4743 6.63588 12.1758 7.00407 12.1758H24.984C25.3522 12.1758 25.6506 12.4743 25.6506 12.8425V25.4855C25.6506 25.8537 25.3522 26.1522 24.984 26.1522H7.00407C6.63588 26.1522 6.3374 25.8537 6.3374 25.4855V12.8425ZM15 23.8543H17V20.1876H20.6667V18.1876H17V14.5209H15V18.1876H11.3333V20.1876H15V23.8543Z" fill="white"/>
</g>
</svg>
